<svg width="1200" height="300" viewBox="0 0 1200 300" xmlns="http://www.w3.org/2000/svg">
<defs><linearGradient id="g" x1="0" x2="1200" y1="0" y2="300"><stop stop-color="#00ff88"/><stop offset=".55" stop-color="#00d9ff"/><stop offset="1" stop-color="#f7c948"/></linearGradient><filter id="glow"><feGaussianBlur stdDeviation="4"/><feMerge><feMergeNode/><feMergeNode in="SourceGraphic"/></feMerge></filter></defs>
<rect width="1200" height="300" rx="22" fill="#050505"/><rect x="2" y="2" width="1196" height="296" rx="22" fill="none" stroke="url(#g)" opacity=".55" stroke-width="2"/>
<text x="600" y="58" text-anchor="middle" font-family="JetBrains Mono, Consolas, monospace" font-size="27" font-weight="900" letter-spacing="8" fill="#fff">CYBER ACHIEVEMENTS</text>
<line x1="120" y1="86" x2="1080" y2="86" stroke="url(#g)" opacity=".5"/>
<g font-family="JetBrains Mono, Consolas, monospace" font-weight="900" letter-spacing="2.5">
<g transform="translate(95 125)"><rect width="300" height="70" rx="14" fill="#0d1117" stroke="#00ff88"/><circle cx="38" cy="35" r="13" fill="#00ff88" filter="url(#glow)"/><text x="175" y="43" text-anchor="middle" fill="#fff" font-size="17">CODE ARCHITECT</text></g>
<g transform="translate(450 125)"><rect width="300" height="70" rx="14" fill="#0d1117" stroke="#00d9ff"/><circle cx="38" cy="35" r="13" fill="#00d9ff" filter="url(#glow)"/><text x="175" y="43" text-anchor="middle" fill="#fff" font-size="17">AUTOMATION BUILDER</text></g>
<g transform="translate(805 125)"><rect width="300" height="70" rx="14" fill="#0d1117" stroke="#f7c948"/><circle cx="38" cy="35" r="13" fill="#f7c948" filter="url(#glow)"/><text x="175" y="43" text-anchor="middle" fill="#fff" font-size="17">DATA EXPLORER</text></g>
<g transform="translate(255 215)"><rect width="300" height="58" rx="12" fill="#0d1117" stroke="#00ff88"/><text x="150" y="37" text-anchor="middle" fill="#fff" font-size="15">SECURITY MINDSET</text></g>
<g transform="translate(645 215)"><rect width="300" height="58" rx="12" fill="#0d1117" stroke="#00d9ff"/><text x="150" y="37" text-anchor="middle" fill="#fff" font-size="15">SYSTEM BUILDER</text></g>
</g></svg>