<svg width="1200" height="260" viewBox="0 0 1200 260" xmlns="http://www.w3.org/2000/svg">
<defs><linearGradient id="e" x1="0" x2="1200" y1="0" y2="260"><stop stop-color="#00ff88"/><stop offset=".5" stop-color="#00d9ff"/><stop offset="1" stop-color="#f7c948"/></linearGradient><filter id="glow"><feGaussianBlur stdDeviation="3"/><feMerge><feMergeNode/><feMergeNode in="SourceGraphic"/></feMerge></filter></defs>
<rect width="1200" height="260" rx="18" fill="#050505"/><rect x="1.5" y="1.5" width="1197" height="257" rx="18" fill="none" stroke="url(#e)" stroke-width="2" opacity=".5"/>
<text x="600" y="52" text-anchor="middle" font-family="JetBrains Mono, Consolas, monospace" font-size="24" font-weight="800" letter-spacing="7" fill="#fff">CORE STACK</text>
<g font-family="JetBrains Mono, Consolas, monospace" font-weight="800" letter-spacing="2">
<g transform="translate(70 95)"><rect width="180" height="64" rx="12" fill="#0d1117" stroke="#00d9ff"/><circle cx="38" cy="32" r="16" fill="#00d9ff" filter="url(#glow)"/><text x="112" y="39" text-anchor="middle" fill="#fff" font-size="18">PYTHON</text></g>
<g transform="translate(270 95)"><rect width="180" height="64" rx="12" fill="#0d1117" stroke="#f7c948"/><circle cx="38" cy="32" r="16" fill="#f7c948" filter="url(#glow)"/><text x="112" y="39" text-anchor="middle" fill="#fff" font-size="18">SQL</text></g>
<g transform="translate(470 95)"><rect width="220" height="64" rx="12" fill="#0d1117" stroke="#f7c948"/><rect x="24" y="25" width="10" height="22" fill="#f7c948"/><rect x="42" y="17" width="10" height="30" fill="#f7c948"/><rect x="60" y="9" width="10" height="38" fill="#f7c948"/><text x="142" y="39" text-anchor="middle" fill="#fff" font-size="18">POWER BI</text></g>
<g transform="translate(710 95)"><rect width="180" height="64" rx="12" fill="#0d1117" stroke="#00d9ff"/><circle cx="38" cy="32" r="16" fill="none" stroke="#00d9ff" stroke-width="3" filter="url(#glow)"/><text x="112" y="39" text-anchor="middle" fill="#fff" font-size="18">REACT</text></g>
<g transform="translate(910 95)"><rect width="220" height="64" rx="12" fill="#0d1117" stroke="#00ff88"/><circle cx="38" cy="32" r="16" fill="#00ff88" filter="url(#glow)"/><text x="142" y="39" text-anchor="middle" fill="#fff" font-size="18">AUTOMATION</text></g>
<g transform="translate(155 178)"><rect width="210" height="46" rx="9" fill="#0d1117" stroke="#263647"/><text x="105" y="30" text-anchor="middle" fill="#c9d1d9" font-size="14">JAVASCRIPT</text></g>
<g transform="translate(385 178)"><rect width="210" height="46" rx="9" fill="#0d1117" stroke="#263647"/><text x="105" y="30" text-anchor="middle" fill="#c9d1d9" font-size="14">TYPESCRIPT</text></g>
<g transform="translate(615 178)"><rect width="210" height="46" rx="9" fill="#0d1117" stroke="#263647"/><text x="105" y="30" text-anchor="middle" fill="#c9d1d9" font-size="14">FASTAPI</text></g>
<g transform="translate(845 178)"><rect width="210" height="46" rx="9" fill="#0d1117" stroke="#263647"/><text x="105" y="30" text-anchor="middle" fill="#c9d1d9" font-size="14">LINUX</text></g>
</g></svg>