<svg width="1200" height="250" viewBox="0 0 1200 250" xmlns="http://www.w3.org/2000/svg">
<defs><linearGradient id="e" x1="0" x2="1200" y1="0" y2="250"><stop stop-color="#00ff88"/><stop offset=".55" stop-color="#00d9ff"/><stop offset="1" stop-color="#f7c948"/></linearGradient><filter id="glow"><feGaussianBlur stdDeviation="3"/><feMerge><feMergeNode/><feMergeNode in="SourceGraphic"/></feMerge></filter></defs>
<rect width="1200" height="250" rx="18" fill="#050505"/><rect x="1.5" y="1.5" width="1197" height="247" rx="18" fill="none" stroke="url(#e)" stroke-width="2" opacity=".55"/>
<g opacity=".12" font-family="JetBrains Mono, Consolas, monospace" font-size="15" fill="#00ff88"><text x="35" y="42">01001110 01010000 // ACCESS_GRANTED // SECURE_BUILD // DATA_PIPELINE // AI_AGENT</text><text x="730" y="218">PYTHON SQL POWERBI REACT FASTAPI LINUX AUTOMATION</text></g>
<text x="600" y="58" text-anchor="middle" font-family="JetBrains Mono, Consolas, monospace" font-size="24" font-weight="800" letter-spacing="7" fill="#ffffff">CYBER ACHIEVEMENTS</text><line x1="125" y1="78" x2="1075" y2="78" stroke="url(#e)" opacity=".55"/>
<g font-family="JetBrains Mono, Consolas, monospace" font-weight="800" letter-spacing="2.5">
<g transform="translate(70 115)"><rect width="205" height="58" rx="9" fill="#0d1117" stroke="#00ff88"/><circle cx="32" cy="29" r="10" fill="#00ff88" filter="url(#glow)"/><text x="122" y="36" text-anchor="middle" font-size="15" fill="#fff">CODE ARCHITECT</text></g>
<g transform="translate(302 115)"><rect width="260" height="58" rx="9" fill="#0d1117" stroke="#00d9ff"/><circle cx="32" cy="29" r="10" fill="#00d9ff" filter="url(#glow)"/><text x="150" y="36" text-anchor="middle" font-size="15" fill="#fff">AUTOMATION BUILDER</text></g>
<g transform="translate(590 115)"><rect width="215" height="58" rx="9" fill="#0d1117" stroke="#f7c948"/><circle cx="32" cy="29" r="10" fill="#f7c948" filter="url(#glow)"/><text x="130" y="36" text-anchor="middle" font-size="15" fill="#fff">DATA EXPLORER</text></g>
<g transform="translate(835 115)"><rect width="295" height="58" rx="9" fill="#0d1117" stroke="#00ff88"/><circle cx="32" cy="29" r="10" fill="#00ff88" filter="url(#glow)"/><text x="166" y="36" text-anchor="middle" font-size="15" fill="#fff">SECURITY MINDSET</text></g>
</g></svg>