<svg width="1200" height="340" viewBox="0 0 1200 340" xmlns="http://www.w3.org/2000/svg">
<defs>
<linearGradient id="g" x1="0" x2="1200"><stop stop-color="#00ff88"/><stop offset=".52" stop-color="#00d9ff"/><stop offset="1" stop-color="#f7c948"/></linearGradient>
<filter id="glow"><feGaussianBlur stdDeviation="3"/><feMerge><feMergeNode/><feMergeNode in="SourceGraphic"/></feMerge></filter>
</defs>
<rect width="1200" height="340" rx="22" fill="#050505"/>
<rect x="2" y="2" width="1196" height="336" rx="22" fill="none" stroke="url(#g)" opacity=".55" stroke-width="2"/>
<text x="600" y="58" text-anchor="middle" font-family="JetBrains Mono, Consolas, monospace" font-size="28" font-weight="900" letter-spacing="8" fill="#ffffff">CORE STACK</text>
<g font-family="JetBrains Mono, Consolas, monospace" font-weight="900" letter-spacing="2">
<g transform="translate(70 105)"><rect width="195" height="76" rx="14" fill="#0d1117" stroke="#00d9ff"/><circle cx="42" cy="38" r="17" fill="#00d9ff" filter="url(#glow)"/><text x="123" y="46" text-anchor="middle" fill="#fff" font-size="18">PYTHON</text></g>
<g transform="translate(290 105)"><rect width="195" height="76" rx="14" fill="#0d1117" stroke="#f7c948"/><circle cx="42" cy="38" r="17" fill="#f7c948" filter="url(#glow)"/><text x="123" y="46" text-anchor="middle" fill="#fff" font-size="18">SQL</text></g>
<g transform="translate(510 105)"><rect width="220" height="76" rx="14" fill="#0d1117" stroke="#f7c948"/><rect x="31" y="34" width="10" height="22" fill="#f7c948"/><rect x="50" y="24" width="10" height="32" fill="#f7c948"/><rect x="69" y="14" width="10" height="42" fill="#f7c948"/><text x="148" y="46" text-anchor="middle" fill="#fff" font-size="18">POWER BI</text></g>
<g transform="translate(755 105)"><rect width="195" height="76" rx="14" fill="#0d1117" stroke="#00d9ff"/><circle cx="42" cy="38" r="18" fill="none" stroke="#00d9ff" stroke-width="3" filter="url(#glow)"/><text x="123" y="46" text-anchor="middle" fill="#fff" font-size="18">REACT</text></g>
<g transform="translate(975 105)"><rect width="155" height="76" rx="14" fill="#0d1117" stroke="#00ff88"/><circle cx="34" cy="38" r="16" fill="#00ff88" filter="url(#glow)"/><text x="101" y="46" text-anchor="middle" fill="#fff" font-size="16">AI</text></g>
<g transform="translate(95 230)"><rect width="230" height="50" rx="10" fill="#0d1117" stroke="#263647"/><text x="115" y="32" text-anchor="middle" fill="#c9d1d9" font-size="15">JAVASCRIPT</text></g>
<g transform="translate(355 230)"><rect width="230" height="50" rx="10" fill="#0d1117" stroke="#263647"/><text x="115" y="32" text-anchor="middle" fill="#c9d1d9" font-size="15">TYPESCRIPT</text></g>
<g transform="translate(615 230)"><rect width="230" height="50" rx="10" fill="#0d1117" stroke="#263647"/><text x="115" y="32" text-anchor="middle" fill="#c9d1d9" font-size="15">FASTAPI</text></g>
<g transform="translate(875 230)"><rect width="230" height="50" rx="10" fill="#0d1117" stroke="#263647"/><text x="115" y="32" text-anchor="middle" fill="#c9d1d9" font-size="15">LINUX</text></g>
</g>
</svg>