<svg width="1200" height="340" viewBox="0 0 1200 340" xmlns="http://www.w3.org/2000/svg">
<defs><linearGradient id="g" x1="0" x2="1200" y1="0" y2="340"><stop stop-color="#00ff88"/><stop offset=".55" stop-color="#00d9ff"/><stop offset="1" stop-color="#f7c948"/></linearGradient><filter id="glow"><feGaussianBlur stdDeviation="4"/><feMerge><feMergeNode/><feMergeNode in="SourceGraphic"/></feMerge></filter></defs>
<rect width="1200" height="340" rx="22" fill="#050505"/><rect x="2" y="2" width="1196" height="336" rx="22" fill="none" stroke="url(#g)" opacity=".55" stroke-width="2"/>
<g font-family="JetBrains Mono, Consolas, monospace">
<g transform="translate(45 55)"><rect width="310" height="230" rx="14" fill="#0d1117" stroke="#00ff88"/><text x="24" y="40" font-size="20" font-weight="900" fill="#00ff88">SYSTEM STATUS</text><text x="24" y="82" font-size="15" fill="#c9d1d9">focus</text><rect x="135" y="68" width="130" height="12" fill="#10251b"/><rect x="135" y="68" width="130" height="12" fill="#00ff88"/><text x="275" y="80" font-size="13" fill="#fff">100%</text><text x="24" y="116" font-size="15" fill="#c9d1d9">discipline</text><rect x="135" y="102" width="130" height="12" fill="#10251b"/><rect x="135" y="102" width="123" height="12" fill="#00d9ff"/><text x="275" y="114" font-size="13" fill="#fff">95%</text><text x="24" y="150" font-size="15" fill="#c9d1d9">learning</text><rect x="135" y="136" width="130" height="12" fill="#10251b"/><rect x="135" y="136" width="116" height="12" fill="#f7c948"/><text x="275" y="148" font-size="13" fill="#fff">89%</text><text x="24" y="190" font-size="15" fill="#c9d1d9">bugs today</text><text x="145" y="190" font-size="15" fill="#00ff88">0</text><text x="24" y="222" font-size="15" fill="#c9d1d9">uptime</text><text x="145" y="222" font-size="15" fill="#00ff88">24/7</text></g>
<g transform="translate(420 50)"><rect width="360" height="240" rx="18" fill="#0d1117" stroke="#263647"/><rect x="118" y="36" width="124" height="124" rx="22" fill="#050505" stroke="#f7c948" stroke-width="3" filter="url(#glow)"/><text x="180" y="118" text-anchor="middle" font-size="58" font-weight="900" fill="#f7c948" filter="url(#glow)">NP</text><text x="180" y="194" text-anchor="middle" font-size="17" font-weight="900" fill="#fff" letter-spacing="4">BUILD • AUTOMATE • DEFEND</text><text x="180" y="226" text-anchor="middle" font-size="12" fill="#c9d1d9" letter-spacing="2">THINK LIKE A HACKER. BUILD LIKE AN ENGINEER.</text></g>
<g transform="translate(845 55)"><rect width="310" height="230" rx="14" fill="#0d1117" stroke="#00ff88"/><text x="24" y="40" font-size="20" font-weight="900" fill="#00ff88">CURRENTLY</text><text x="24" y="82" font-size="15" fill="#c9d1d9">building secure systems</text><text x="24" y="116" font-size="15" fill="#c9d1d9">automating workflows</text><text x="24" y="150" font-size="15" fill="#c9d1d9">studying AI and data</text><text x="24" y="184" font-size="15" fill="#c9d1d9">shipping projects</text><text x="24" y="222" font-size="15" fill="#00ff88">nathan@np-dev:~$</text><rect x="182" y="212" width="10" height="18" fill="#00ff88" filter="url(#glow)"/></g>
</g></svg>