<svg width="520" height="260" viewBox="0 0 520 260" fill="none" xmlns="http://www.w3.org/2000/svg">
  <defs><filter id="glow"><feGaussianBlur stdDeviation="2" result="b"/><feMerge><feMergeNode in="b"/><feMergeNode in="SourceGraphic"/></feMerge></filter><style>.bg{fill:#060b10;stroke:#00ff41;stroke-opacity:.55}.t{font:16px Consolas,monospace;fill:#c9d1d9}.g{fill:#00ff41}.y{fill:#f7c948}.bar{fill:#00ff41;filter:url(#glow)}.line{stroke:#00ff41;stroke-opacity:.25}</style></defs>
  <rect class="bg" x="8" y="8" width="504" height="244" rx="16"/>
  <text class="t g" x="28" y="44">&gt;_ SYSTEM STATUS</text>
  <text class="t" x="28" y="82">Focus</text><rect x="190" y="68" width="250" height="12" rx="6" fill="#0b1f16"/><rect class="bar" x="190" y="68" width="250" height="12" rx="6"/><text class="t g" x="455" y="82">100%</text>
  <text class="t" x="28" y="117">Motivation</text><rect x="190" y="103" width="250" height="12" rx="6" fill="#0b1f16"/><rect class="bar" x="190" y="103" width="250" height="12" rx="6"/><text class="t g" x="455" y="117">100%</text>
  <text class="t" x="28" y="152">Caffeine</text><rect x="190" y="138" width="250" height="12" rx="6" fill="#0b1f16"/><rect class="bar" x="190" y="138" width="218" height="12" rx="6"/><text class="t y" x="455" y="152">87%</text>
  <text class="t" x="28" y="187">Bugs Today</text><text class="t g" x="190" y="187">0</text>
  <text class="t" x="28" y="222">Uptime</text><text class="t g" x="190" y="222">24/7</text><path class="line" d="M28 234 H492"/></svg>
